<svg width="53" height="69" viewBox="0 0 53 69" fill="none" xmlns="http://www.w3.org/2000/svg">
<path d="M4.78516 61.6318H2.22852L2.21484 60.2236H4.36133C4.73958 60.2236 5.04948 60.1758 5.29102 60.0801C5.53255 59.9798 5.71257 59.8363 5.83105 59.6494C5.9541 59.458 6.01562 59.2256 6.01562 58.9521C6.01562 58.6423 5.95638 58.3916 5.83789 58.2002C5.72396 58.0088 5.54395 57.8698 5.29785 57.7832C5.05632 57.6966 4.74414 57.6533 4.36133 57.6533H2.93945V66H0.888672V56.0469H4.36133C4.9401 56.0469 5.45736 56.1016 5.91309 56.2109C6.37337 56.3203 6.76302 56.4867 7.08203 56.71C7.40104 56.9333 7.64486 57.2158 7.81348 57.5576C7.9821 57.8949 8.06641 58.2959 8.06641 58.7607C8.06641 59.1709 7.97298 59.5492 7.78613 59.8955C7.60384 60.2419 7.31445 60.5244 6.91797 60.7432C6.52604 60.9619 6.01335 61.0827 5.37988 61.1055L4.78516 61.6318ZM4.69629 66H1.66797L2.46777 64.4004H4.69629C5.05632 64.4004 5.35026 64.3434 5.57812 64.2295C5.80599 64.111 5.97461 63.9515 6.08398 63.751C6.19336 63.5505 6.24805 63.3203 6.24805 63.0605C6.24805 62.7689 6.19792 62.516 6.09766 62.3018C6.00195 62.0876 5.84701 61.9235 5.63281 61.8096C5.41862 61.6911 5.13607 61.6318 4.78516 61.6318H2.80957L2.82324 60.2236H5.28418L5.75586 60.7773C6.36198 60.7682 6.84961 60.8753 7.21875 61.0986C7.59245 61.3174 7.86361 61.6022 8.03223 61.9531C8.2054 62.304 8.29199 62.68 8.29199 63.0811C8.29199 63.7191 8.15299 64.2568 7.875 64.6943C7.59701 65.1273 7.18913 65.4531 6.65137 65.6719C6.11816 65.8906 5.46647 66 4.69629 66ZM13.1113 66.1367C12.5371 66.1367 12.0221 66.0456 11.5664 65.8633C11.1107 65.6764 10.7233 65.4189 10.4043 65.0908C10.0898 64.7627 9.84831 64.3822 9.67969 63.9492C9.51107 63.5117 9.42676 63.0469 9.42676 62.5547V62.2812C9.42676 61.7207 9.50651 61.208 9.66602 60.7432C9.82552 60.2783 10.0534 59.875 10.3496 59.5332C10.6504 59.1914 11.015 58.9294 11.4434 58.7471C11.8717 58.5602 12.3548 58.4668 12.8926 58.4668C13.4167 58.4668 13.8815 58.5534 14.2871 58.7266C14.6927 58.8997 15.0322 59.1458 15.3057 59.4648C15.5837 59.7839 15.7933 60.1667 15.9346 60.6133C16.0758 61.0553 16.1465 61.5475 16.1465 62.0898V62.9102H10.2676V61.5977H14.2119V61.4473C14.2119 61.1738 14.1618 60.93 14.0615 60.7158C13.9658 60.4971 13.82 60.3239 13.624 60.1963C13.4281 60.0687 13.1774 60.0049 12.8721 60.0049C12.6123 60.0049 12.389 60.0618 12.2021 60.1758C12.0153 60.2897 11.8626 60.4492 11.7441 60.6543C11.6302 60.8594 11.5436 61.1009 11.4844 61.3789C11.4297 61.6523 11.4023 61.9531 11.4023 62.2812V62.5547C11.4023 62.8509 11.4434 63.1243 11.5254 63.375C11.612 63.6257 11.7327 63.8421 11.8877 64.0244C12.0472 64.2067 12.2386 64.348 12.4619 64.4482C12.6898 64.5485 12.9473 64.5986 13.2344 64.5986C13.5898 64.5986 13.9202 64.5303 14.2256 64.3936C14.5355 64.2523 14.8021 64.0404 15.0254 63.7578L15.9824 64.7969C15.8275 65.0202 15.6156 65.2344 15.3467 65.4395C15.0824 65.6445 14.7633 65.8132 14.3896 65.9453C14.016 66.0729 13.5898 66.1367 13.1113 66.1367ZM19.2363 60.2168V66H17.2676V58.6035H19.1201L19.2363 60.2168ZM21.4648 58.5557L21.4307 60.3809C21.335 60.3672 21.2188 60.3558 21.082 60.3467C20.9499 60.333 20.8291 60.3262 20.7197 60.3262C20.4417 60.3262 20.2002 60.3626 19.9951 60.4355C19.7946 60.5039 19.626 60.6064 19.4893 60.7432C19.3571 60.8799 19.2568 61.0462 19.1885 61.2422C19.1247 61.4382 19.0882 61.6615 19.0791 61.9121L18.6826 61.7891C18.6826 61.3105 18.7305 60.8708 18.8262 60.4697C18.9219 60.0641 19.0609 59.7109 19.2432 59.4102C19.43 59.1094 19.6579 58.877 19.9268 58.7129C20.1956 58.5488 20.5033 58.4668 20.8496 58.4668C20.959 58.4668 21.0706 58.4759 21.1846 58.4941C21.2985 58.5078 21.3919 58.5283 21.4648 58.5557ZM26.1543 64.332V61.0371C26.1543 60.8001 26.1156 60.5973 26.0381 60.4287C25.9606 60.2555 25.8398 60.1211 25.6758 60.0254C25.5163 59.9297 25.3089 59.8818 25.0537 59.8818C24.835 59.8818 24.6458 59.9206 24.4863 59.998C24.3268 60.071 24.2038 60.1781 24.1172 60.3193C24.0306 60.4561 23.9873 60.6178 23.9873 60.8047H22.0186C22.0186 60.4902 22.0915 60.1917 22.2373 59.9092C22.3831 59.6266 22.5951 59.3783 22.873 59.1641C23.151 58.9453 23.4814 58.7744 23.8643 58.6514C24.2516 58.5283 24.6846 58.4668 25.1631 58.4668C25.7373 58.4668 26.2477 58.5625 26.6943 58.7539C27.141 58.9453 27.4919 59.2324 27.7471 59.6152C28.0068 59.998 28.1367 60.4766 28.1367 61.0508V64.2158C28.1367 64.6214 28.1618 64.9541 28.2119 65.2139C28.262 65.4691 28.335 65.6924 28.4307 65.8838V66H26.4414C26.3457 65.7995 26.2728 65.5488 26.2227 65.248C26.1771 64.9427 26.1543 64.6374 26.1543 64.332ZM26.4141 61.4951L26.4277 62.6094H25.3271C25.0674 62.6094 24.8418 62.639 24.6504 62.6982C24.459 62.7575 24.3018 62.8418 24.1787 62.9512C24.0557 63.056 23.9645 63.179 23.9053 63.3203C23.8506 63.4616 23.8232 63.6165 23.8232 63.7852C23.8232 63.9538 23.862 64.1064 23.9395 64.2432C24.0169 64.3753 24.1286 64.4801 24.2744 64.5576C24.4202 64.6305 24.5911 64.667 24.7871 64.667C25.0833 64.667 25.3408 64.6077 25.5596 64.4893C25.7783 64.3708 25.9469 64.2249 26.0654 64.0518C26.1885 63.8786 26.2523 63.7145 26.2568 63.5596L26.7764 64.3936C26.7035 64.5804 26.6032 64.7741 26.4756 64.9746C26.3525 65.1751 26.1953 65.3643 26.0039 65.542C25.8125 65.7152 25.5824 65.8587 25.3135 65.9727C25.0446 66.082 24.7256 66.1367 24.3564 66.1367C23.887 66.1367 23.4609 66.0433 23.0781 65.8564C22.6999 65.665 22.3991 65.403 22.1758 65.0703C21.957 64.7331 21.8477 64.3503 21.8477 63.9219C21.8477 63.5345 21.9206 63.1904 22.0664 62.8896C22.2122 62.5889 22.4264 62.3359 22.709 62.1309C22.9961 61.9212 23.3538 61.764 23.7822 61.6592C24.2106 61.5498 24.7074 61.4951 25.2725 61.4951H26.4141ZM31.582 60.1826V66H29.6133V58.6035H31.459L31.582 60.1826ZM31.2949 62.042H30.7617C30.7617 61.4951 30.8324 61.0029 30.9736 60.5654C31.1149 60.1234 31.3132 59.7474 31.5684 59.4375C31.8236 59.123 32.1266 58.8838 32.4775 58.7197C32.833 58.5511 33.2295 58.4668 33.667 58.4668C34.0133 58.4668 34.3301 58.5169 34.6172 58.6172C34.9043 58.7174 35.1504 58.877 35.3555 59.0957C35.5651 59.3145 35.7246 59.6038 35.834 59.9639C35.9479 60.3239 36.0049 60.7637 36.0049 61.2832V66H34.0225V61.2764C34.0225 60.9482 33.9769 60.693 33.8857 60.5107C33.7946 60.3285 33.6602 60.2008 33.4824 60.1279C33.3092 60.0505 33.0951 60.0117 32.8398 60.0117C32.5755 60.0117 32.3454 60.0641 32.1494 60.1689C31.958 60.2738 31.7985 60.4196 31.6709 60.6064C31.5479 60.7887 31.4544 61.0029 31.3906 61.249C31.3268 61.4951 31.2949 61.7594 31.2949 62.042ZM41.8701 64.3867V55.5H43.8525V66H42.0684L41.8701 64.3867ZM37.1943 62.3906V62.2471C37.1943 61.682 37.2581 61.1693 37.3857 60.709C37.5133 60.2441 37.7002 59.8454 37.9463 59.5127C38.1924 59.18 38.4954 58.9225 38.8555 58.7402C39.2155 58.5579 39.6257 58.4668 40.0859 58.4668C40.5189 58.4668 40.8971 58.5579 41.2207 58.7402C41.5488 58.9225 41.8268 59.1823 42.0547 59.5195C42.2871 59.8522 42.474 60.2464 42.6152 60.7021C42.7565 61.1533 42.859 61.6478 42.9229 62.1855V62.5C42.859 63.015 42.7565 63.4935 42.6152 63.9355C42.474 64.3776 42.2871 64.765 42.0547 65.0977C41.8268 65.4258 41.5488 65.681 41.2207 65.8633C40.8926 66.0456 40.5098 66.1367 40.0723 66.1367C39.612 66.1367 39.2018 66.0433 38.8418 65.8564C38.4863 65.6696 38.1855 65.4076 37.9395 65.0703C37.6979 64.7331 37.5133 64.3366 37.3857 63.8809C37.2581 63.4251 37.1943 62.9284 37.1943 62.3906ZM39.1631 62.2471V62.3906C39.1631 62.696 39.1859 62.9808 39.2314 63.2451C39.2816 63.5094 39.3613 63.7441 39.4707 63.9492C39.5846 64.1497 39.7305 64.307 39.9082 64.4209C40.0905 64.5303 40.3115 64.585 40.5713 64.585C40.9085 64.585 41.1865 64.5098 41.4053 64.3594C41.624 64.2044 41.7904 63.9925 41.9043 63.7236C42.0228 63.4548 42.0911 63.1449 42.1094 62.7939V61.8984C42.0957 61.6113 42.0547 61.3538 41.9863 61.126C41.9225 60.8936 41.8268 60.6953 41.6992 60.5312C41.5762 60.3672 41.4212 60.2396 41.2344 60.1484C41.0521 60.0573 40.8356 60.0117 40.585 60.0117C40.3298 60.0117 40.111 60.071 39.9287 60.1895C39.7464 60.3034 39.5983 60.4606 39.4844 60.6611C39.375 60.8617 39.293 61.0986 39.2383 61.3721C39.1882 61.641 39.1631 61.9326 39.1631 62.2471ZM49.3828 64.332V61.0371C49.3828 60.8001 49.3441 60.5973 49.2666 60.4287C49.1891 60.2555 49.0684 60.1211 48.9043 60.0254C48.7448 59.9297 48.5374 59.8818 48.2822 59.8818C48.0635 59.8818 47.8743 59.9206 47.7148 59.998C47.5553 60.071 47.4323 60.1781 47.3457 60.3193C47.2591 60.4561 47.2158 60.6178 47.2158 60.8047H45.2471C45.2471 60.4902 45.32 60.1917 45.4658 59.9092C45.6117 59.6266 45.8236 59.3783 46.1016 59.1641C46.3796 58.9453 46.71 58.7744 47.0928 58.6514C47.4801 58.5283 47.9131 58.4668 48.3916 58.4668C48.9658 58.4668 49.4762 58.5625 49.9229 58.7539C50.3695 58.9453 50.7204 59.2324 50.9756 59.6152C51.2354 59.998 51.3652 60.4766 51.3652 61.0508V64.2158C51.3652 64.6214 51.3903 64.9541 51.4404 65.2139C51.4906 65.4691 51.5635 65.6924 51.6592 65.8838V66H49.6699C49.5742 65.7995 49.5013 65.5488 49.4512 65.248C49.4056 64.9427 49.3828 64.6374 49.3828 64.332ZM49.6426 61.4951L49.6562 62.6094H48.5557C48.2959 62.6094 48.0703 62.639 47.8789 62.6982C47.6875 62.7575 47.5303 62.8418 47.4072 62.9512C47.2842 63.056 47.193 63.179 47.1338 63.3203C47.0791 63.4616 47.0518 63.6165 47.0518 63.7852C47.0518 63.9538 47.0905 64.1064 47.168 64.2432C47.2454 64.3753 47.3571 64.4801 47.5029 64.5576C47.6488 64.6305 47.8197 64.667 48.0156 64.667C48.3118 64.667 48.5693 64.6077 48.7881 64.4893C49.0068 64.3708 49.1755 64.2249 49.2939 64.0518C49.417 63.8786 49.4808 63.7145 49.4854 63.5596L50.0049 64.3936C49.932 64.5804 49.8317 64.7741 49.7041 64.9746C49.5811 65.1751 49.4238 65.3643 49.2324 65.542C49.041 65.7152 48.8109 65.8587 48.542 65.9727C48.2731 66.082 47.9541 66.1367 47.585 66.1367C47.1156 66.1367 46.6895 66.0433 46.3066 65.8564C45.9284 65.665 45.6276 65.403 45.4043 65.0703C45.1855 64.7331 45.0762 64.3503 45.0762 63.9219C45.0762 63.5345 45.1491 63.1904 45.2949 62.8896C45.4408 62.5889 45.6549 62.3359 45.9375 62.1309C46.2246 61.9212 46.5824 61.764 47.0107 61.6592C47.4391 61.5498 47.9359 61.4951 48.501 61.4951H49.6426Z" fill="black"/>
<path d="M5.52087 26.9294C5.52087 24.5489 5.52087 23.3587 6.02137 22.3259C6.52186 21.2931 7.45605 20.5556 9.32443 19.0805L20.3036 10.4128C23.2774 8.06506 24.7642 6.89121 26.5 6.89121C28.2359 6.89121 29.7227 8.06506 32.6965 10.4128L43.6757 19.0805C45.544 20.5556 46.4782 21.2931 46.9787 22.3259C47.4792 23.3587 47.4792 24.5489 47.4792 26.9294V42.5833C47.4792 45.4118 47.4792 46.826 46.6005 47.7047C45.7218 48.5833 44.3076 48.5833 41.4792 48.5833H26.5H11.5209C8.69245 48.5833 7.27823 48.5833 6.39955 47.7047C5.52087 46.826 5.52087 45.4118 5.52087 42.5833V26.9294Z" stroke="#222628" stroke-width="1.4"/>
<path d="M33.125 48.5833C33.125 47.7133 32.9536 46.8518 32.6207 46.0481C32.2878 45.2443 31.7998 44.5139 31.1846 43.8988C30.5694 43.2836 29.8391 42.7956 29.0353 42.4626C28.2315 42.1297 27.37 41.9583 26.5 41.9583C25.63 41.9583 24.7685 42.1297 23.9647 42.4626C23.1609 42.7956 22.4306 43.2836 21.8154 43.8988C21.2002 44.5139 20.7122 45.2443 20.3793 46.0481C20.0464 46.8518 19.875 47.7133 19.875 48.5833L26.5 48.5833H33.125Z" stroke="#222628" stroke-width="1.4"/>
</svg>
